<svg id="Group_40" data-name="Group 40" xmlns="http://www.w3.org/2000/svg" viewBox="0 0 1773.38 99.887">
  <defs>
    <style>
      .cls-1 {
        fill: #80dedf;
      }

      .cls-2 {
        fill: #022266;
      }

      .cls-3 {
        fill: #ff7559;
      }
    </style>
  </defs>
  <rect id="Rectangle_108" data-name="Rectangle 108" class="cls-1" width="98.42" height="99.887" transform="translate(1281.279)"/>
  <rect id="Rectangle_109" data-name="Rectangle 109" class="cls-2" width="98.42" height="99.887" transform="translate(787.359)"/>
  <rect id="Rectangle_110" data-name="Rectangle 110" class="cls-1" width="98.42" height="99.887" transform="translate(492.099)"/>
  <rect id="Rectangle_111" data-name="Rectangle 111" class="cls-1" width="98.42" height="99.887" transform="translate(98.42)"/>
  <g id="Group_35" data-name="Group 35" transform="translate(196.84)">
    <path id="Path_148" data-name="Path 148" class="cls-3" d="M1080,0l49.209,99.887V0Z" transform="translate(-1030.789)"/>
    <path id="Path_149" data-name="Path 149" class="cls-3" d="M864,0V99.887L913.21,0Z" transform="translate(-864)"/>
  </g>
  <path id="Path_150" data-name="Path 150" class="cls-2" d="M2160,265.943h0c0-27.584,22.031-49.943,49.209-49.943h0c27.178,0,49.209,22.359,49.209,49.943H2160Z" transform="translate(-1667.901 -166.056)"/>
  <path id="Path_151" data-name="Path 151" class="cls-1" d="M3554.418,0h0c0,27.585-22.03,49.944-49.208,49.944h0C3478.028,49.944,3456,27.585,3456,0h98.42Z" transform="translate(-2668.643)"/>
  <path id="Path_152" data-name="Path 152" class="cls-2" d="M5624,0h0c27.179,0,49.21,22.359,49.21,49.944h0c0,27.585-22.031,49.944-49.21,49.944h0Z" transform="translate(-4342.724)"/>
  <path id="Path_153" data-name="Path 153" class="cls-3" d="M0,99.887V0H98.42Z"/>
  <rect id="Rectangle_112" data-name="Rectangle 112" class="cls-1" width="98.42" height="99.887" transform="translate(295.259)"/>
  <rect id="Rectangle_113" data-name="Rectangle 113" class="cls-2" width="98.42" height="99.887" transform="translate(984.197)"/>
  <path id="Path_154" data-name="Path 154" class="cls-2" d="M1296,99.887V0h98.42Z" transform="translate(-1000.74)"/>
  <rect id="Rectangle_114" data-name="Rectangle 114" class="cls-3" width="98.42" height="99.887" transform="translate(688.938)"/>
  <rect id="Rectangle_115" data-name="Rectangle 115" class="cls-3" width="98.42" height="99.887" transform="translate(1478.119)"/>
  <rect id="Rectangle_116" data-name="Rectangle 116" class="cls-1" width="98.42" height="99.887" transform="translate(1674.96)"/>
  <g id="Group_36" data-name="Group 36" transform="translate(393.679)">
    <path id="Path_155" data-name="Path 155" class="cls-3" d="M1728,0V99.887h98.42V0Zm65.613,49.944a16.516,16.516,0,0,1-16.4,16.648h0a16.516,16.516,0,0,1-16.4-16.648h0a16.516,16.516,0,0,1,16.4-16.648h0a16.516,16.516,0,0,1,16.4,16.648Z" transform="translate(-1727.999)"/>
  </g>
  <path id="Path_156" data-name="Path 156" class="cls-2" d="M481.21,99.887h0C454.03,99.887,432,77.528,432,49.944h0C432,22.359,454.03,0,481.21,0h0c27.179,0,49.21,22.359,49.21,49.944h0C530.42,77.528,508.389,99.887,481.21,99.887Z" transform="translate(-333.58 0)"/>
  <g id="Group_37" data-name="Group 37" transform="translate(1082.617)">
    <path id="Path_157" data-name="Path 157" class="cls-1" d="M4801.211,0H4752V49.944C4752,22.359,4774.029,0,4801.211,0Z" transform="translate(-4752 0)"/>
    <path id="Path_158" data-name="Path 158" class="cls-1" d="M4968,265.943h49.21V216C5017.209,243.585,4995.178,265.943,4968,265.943Z" transform="translate(-4918.791 -166.056)"/>
    <path id="Path_159" data-name="Path 159" class="cls-1" d="M4752,216v49.943h49.211C4774.029,265.943,4752,243.585,4752,216Z" transform="translate(-4752 -166.056)"/>
    <path id="Path_160" data-name="Path 160" class="cls-1" d="M4968,0c27.18,0,49.21,22.359,49.21,49.944V0Z" transform="translate(-4918.791)"/>
  </g>
  <g id="Group_38" data-name="Group 38" transform="translate(590.519)">
    <path id="Path_161" data-name="Path 161" class="cls-1" d="M2592,0V99.887h98.42V0Zm65.614,49.944a16.517,16.517,0,0,1-16.4,16.648h0a16.517,16.517,0,0,1-16.4-16.648h0a16.517,16.517,0,0,1,16.4-16.648h0a16.517,16.517,0,0,1,16.4,16.648Z" transform="translate(-2591.999)"/>
  </g>
  <path id="Path_162" data-name="Path 162" class="cls-3" d="M7352,0h98.419l-49.211,99.887Z" transform="translate(-5677.039)"/>
  <path id="Path_163" data-name="Path 163" class="cls-3" d="M4418.419,0V99.887H4320Z" transform="translate(-3335.803)"/>
  <path id="Path_164" data-name="Path 164" class="cls-2" d="M7018.42,99.887H6920V0Z" transform="translate(-5343.464)"/>
  <path id="Path_165" data-name="Path 165" class="cls-2" d="M5192,99.887V0h98.42Z" transform="translate(-4009.136)"/>
  <g id="Group_39" data-name="Group 39" transform="translate(1379.699)">
    <path id="Path_166" data-name="Path 166" class="cls-3" d="M6056,0V99.887h98.42V0Zm65.615,49.944a16.52,16.52,0,0,1-16.405,16.648h0a16.516,16.516,0,0,1-16.4-16.648h0a16.516,16.516,0,0,1,16.4-16.648h0a16.52,16.52,0,0,1,16.405,16.648Z" transform="translate(-6055.997)"/>
  </g>
  <path id="Path_167" data-name="Path 167" class="cls-1" d="M6488,265.943h0c0-27.584,22.031-49.943,49.21-49.943h0c27.18,0,49.21,22.359,49.21,49.943H6488Z" transform="translate(-5009.876 -166.056)"/>
  <path id="Path_168" data-name="Path 168" class="cls-3" d="M3888,265.943h0c0-27.584,22.031-49.943,49.209-49.943h0c27.179,0,49.211,22.359,49.211,49.943H3888Z" transform="translate(-3002.222 -166.056)"/>
  <rect id="Rectangle_117" data-name="Rectangle 117" class="cls-1" width="98.42" height="26.359" transform="translate(688.938 38.845)"/>
  <path id="Path_169" data-name="Path 169" class="cls-3" d="M592.4,177.3h0A16.516,16.516,0,0,1,576,160.648h0A16.516,16.516,0,0,1,592.4,144h0a16.516,16.516,0,0,1,16.4,16.648h0A16.516,16.516,0,0,1,592.4,177.3Z" transform="translate(-444.774 -110.704)"/>
</svg>
