<?xml version="1.0" encoding="utf-8"?>
<!-- Generator: Adobe Illustrator 22.1.0, SVG Export Plug-In . SVG Version: 6.00 Build 0)  -->
<svg version="1.1" id="Layer_1" xmlns="http://www.w3.org/2000/svg" xmlns:xlink="http://www.w3.org/1999/xlink" x="0px" y="0px"
	 viewBox="0 0 2592 1728" style="enable-background:new 0 0 2592 1728;" xml:space="preserve">
<style type="text/css">
	.st0{fill:#FF7559;}
	.st1{fill:#80DEDF;}
	.st2{fill:#022266;}
	.st3{fill:#FFF5EB;}
</style>
<path class="st0" d="M1728,864L1728,864L1728,864c0-119.3-96.7-216-216-216h0c-119.3,0-216,96.7-216,216v0h0l0,0h-108H864v432h432
	h432L1728,864L1728,864z M1152,1080c0,39.8-32.2,72-72,72l0,0c-39.8,0-72-32.2-72-72l0,0c0-39.8,32.2-72,72-72l0,0
	C1119.8,1008,1152,1040.2,1152,1080L1152,1080z"/>
<rect x="432" y="864" class="st1" width="432" height="432"/>
<rect x="864" y="432" class="st2" width="432" height="432"/>
<rect x="2160" class="st1" width="432" height="432"/>
<rect x="432" class="st1" width="432" height="432"/>
<g>
	<polygon class="st0" points="1080,0 1296,432 1296,0 	"/>
	<polygon class="st0" points="864,0 864,432 1080,0 	"/>
</g>
<path class="st2" d="M2160,432L2160,432c0-119.3,96.7-216,216-216h0c119.3,0,216,96.7,216,216v0C2592,432,2160,432,2160,432z"/>
<path class="st1" d="M1296,432L1296,432c0,119.3-96.7,216-216,216h0c-119.3,0-216-96.7-216-216v0C864,432,1296,432,1296,432z"/>
<path class="st2" d="M432,864L432,864c119.3,0,216,96.7,216,216v0c0,119.3-96.7,216-216,216h0C432,1296,432,864,432,864z"/>
<polygon class="st0" points="0,432 0,0 432,0 "/>
<rect x="1296" y="0" class="st1" width="432" height="432"/>
<rect x="1728" y="432" class="st2" width="432" height="432"/>
<polygon class="st2" points="1296,432 1296,0 1728,0 "/>
<rect x="432" y="432" class="st0" width="432" height="432"/>
<rect x="2160" y="864" class="st1" width="432" height="432"/>
<g>
	<path class="st0" d="M1728,0v432h432V0H1728z M2016,216c0,39.8-32.2,72-72,72l0,0c-39.8,0-72-32.2-72-72v0c0-39.8,32.2-72,72-72
		l0,0C1983.8,144,2016,176.2,2016,216L2016,216z"/>
</g>
<path class="st2" d="M648,432L648,432c-119.3,0-216-96.7-216-216v0C432,96.7,528.7,0,648,0h0c119.3,0,216,96.7,216,216v0
	C864,335.3,767.3,432,648,432z"/>
<rect x="2160" y="1296" class="st0" width="432" height="432"/>
<polygon class="st0" points="432,1296 0,1296 0,1728 353,1728 432,1728 864,1728 864,1296 "/>
<path class="st2" d="M2160,1728L2160,1728c0-119.3,96.7-216,216-216h0c119.3,0,216,96.7,216,216v0C2592,1728,2160,1728,2160,1728z"
	/>
<polygon class="st1" points="0,1728 0,1296 432,1296 "/>
<rect x="1728" y="1296" class="st2" width="432" height="432"/>
<polygon class="st1" points="1728,1728 1728,1296 2160,1296 "/>
<rect x="1296" y="1296" class="st2" width="432" height="432"/>
<path class="st0" d="M1512,1584L1512,1584c-39.8,0-72-32.2-72-72v0c0-39.8,32.2-72,72-72h0c39.8,0,72,32.2,72,72v0
	C1584,1551.8,1551.8,1584,1512,1584z"/>
<path class="st2" d="M648,1728L648,1728c-119.3,0-216-96.7-216-216v0c0-119.3,96.7-216,216-216h0c119.3,0,216,96.7,216,216v0
	C864,1631.3,767.3,1728,648,1728z"/>
<g>
	<path class="st1" d="M2376,432h-216v216C2160,528.7,2256.7,432,2376,432z"/>
	<path class="st1" d="M2376,864h216V648C2592,767.3,2495.3,864,2376,864z"/>
	<path class="st1" d="M2160,648v216h216C2256.7,864,2160,767.3,2160,648z"/>
	<path class="st1" d="M2376,432c119.3,0,216,96.7,216,216V432H2376z"/>
</g>
<polygon class="st0" points="2160,864 2592,864 2376,1296 "/>
<polygon class="st0" points="2160,432 2160,864 1728,864 "/>
<polygon class="st2" points="2160,1296 1728,1296 1728,864 "/>
<polygon class="st2" points="0,1296 0,864 432,864 "/>
<path class="st1" d="M1296,1296L1296,1296c0-119.3,96.7-216,216-216h0c119.3,0,216,96.7,216,216v0C1728,1296,1296,1296,1296,1296z"
	/>
<g>
	<path class="st1" d="M864,1296c119.3,0,216,96.7,216,216v0c0,119.3-96.7,216-216,216v0h432v-432H864z"/>
	<path class="st3" d="M864,1296C864,1296,864,1296,864,1296L864,1296c0,0,0,432,0,432h0L864,1296L864,1296z"/>
</g>
<path class="st0" d="M648,288L648,288c-39.8,0-72-32.2-72-72v0c0-39.8,32.2-72,72-72h0c39.8,0,72,32.2,72,72v0
	C720,255.8,687.8,288,648,288z"/>
<path class="st1" d="M648,1584L648,1584c-39.8,0-72-32.2-72-72v0c0-39.8,32.2-72,72-72h0c39.8,0,72,32.2,72,72v0
	C720,1551.8,687.8,1584,648,1584z"/>
<rect x="5448" y="5064" class="st1" width="432" height="432"/>
<rect x="3280" y="5064" class="st2" width="432" height="432"/>
<rect x="1984" y="5064" class="st1" width="432" height="432"/>
<rect x="256" y="5064" class="st1" width="432" height="432"/>
<g>
	<polygon class="st0" points="904,5064 1120,5496 1120,5064 	"/>
	<polygon class="st0" points="688,5064 688,5496 904,5064 	"/>
</g>
<path class="st2" d="M1984,5496L1984,5496c0-119.3,96.7-216,216-216h0c119.3,0,216,96.7,216,216l0,0C2416,5496,1984,5496,1984,5496z
	"/>
<path class="st1" d="M3712,5064L3712,5064c0,119.3-96.7,216-216,216h0c-119.3,0-216-96.7-216-216v0C3280,5064,3712,5064,3712,5064z"
	/>
<path class="st2" d="M5448,5064L5448,5064c119.3,0,216,96.7,216,216v0c0,119.3-96.7,216-216,216h0C5448,5496,5448,5064,5448,5064z"
	/>
<polygon class="st0" points="-176,5496 -176,5064 256,5064 "/>
<rect x="1120" y="5064" class="st1" width="432" height="432"/>
<rect x="4144" y="5064" class="st2" width="432" height="432"/>
<polygon class="st2" points="1120,5496 1120,5064 1552,5064 "/>
<rect x="2848" y="5064" class="st0" width="432" height="432"/>
<rect x="6312" y="5064" class="st0" width="432" height="432"/>
<rect x="7176" y="5064" class="st1" width="432" height="432"/>
<g>
	<path class="st0" d="M1552,5064v432h432v-432H1552z M1840,5280c0,39.8-32.2,72-72,72l0,0c-39.8,0-72-32.2-72-72l0,0
		c0-39.8,32.2-72,72-72l0,0C1807.8,5208,1840,5240.2,1840,5280L1840,5280z"/>
</g>
<path class="st2" d="M472,5496L472,5496c-119.3,0-216-96.7-216-216l0,0c0-119.3,96.7-216,216-216h0c119.3,0,216,96.7,216,216l0,0
	C688,5399.3,591.3,5496,472,5496z"/>
<rect x="8760" y="6320" class="st0" width="432" height="432"/>
<rect x="6600" y="6320" class="st0" width="432" height="432"/>
<rect x="7032" y="6320" class="st0" width="432" height="432"/>
<path class="st2" d="M8760,6752L8760,6752c0-119.3,96.7-216,216-216l0,0c119.3,0,216,96.7,216,216l0,0
	C9192,6752,8760,6752,8760,6752z"/>
<polygon class="st1" points="6600,6752 6600,6320 7032,6320 "/>
<rect x="8328" y="6320" class="st2" width="432" height="432"/>
<polygon class="st1" points="8328,6752 8328,6320 8760,6320 "/>
<rect x="7896" y="6320" class="st2" width="432" height="432"/>
<path class="st0" d="M8112,6608L8112,6608c-39.8,0-72-32.2-72-72l0,0c0-39.8,32.2-72,72-72l0,0c39.8,0,72,32.2,72,72l0,0
	C8184,6575.8,8151.8,6608,8112,6608z"/>
<path class="st2" d="M7248,6752L7248,6752c-119.3,0-216-96.7-216-216l0,0c0-119.3,96.7-216,216-216l0,0c119.3,0,216,96.7,216,216
	l0,0C7464,6655.3,7367.3,6752,7248,6752z"/>
<g>
	<path class="st1" d="M4792,5064h-216v216C4576,5160.7,4672.7,5064,4792,5064z"/>
	<path class="st1" d="M4792,5496h216v-216C5008,5399.3,4911.3,5496,4792,5496z"/>
	<path class="st1" d="M4576,5280v216h216C4672.7,5496,4576,5399.3,4576,5280z"/>
	<path class="st1" d="M4792,5064c119.3,0,216,96.7,216,216v-216H4792z"/>
</g>
<g>
	<path class="st1" d="M2416,5064v432h432v-432H2416z M2704,5280c0,39.8-32.2,72-72,72l0,0c-39.8,0-72-32.2-72-72l0,0
		c0-39.8,32.2-72,72-72l0,0C2671.8,5208,2704,5240.2,2704,5280L2704,5280z"/>
</g>
<polygon class="st0" points="7176,5064 7608,5064 7392,5496 "/>
<polygon class="st0" points="4576,5064 4576,5496 4144,5496 "/>
<polygon class="st2" points="7176,5496 6744,5496 6744,5064 "/>
<polygon class="st2" points="5016,5496 5016,5064 5448,5064 "/>
<g>
	<path class="st0" d="M5880,5064v432h432v-432H5880z M6168,5280c0,39.8-32.2,72-72,72l0,0c-39.8,0-72-32.2-72-72l0,0
		c0-39.8,32.2-72,72-72l0,0C6135.8,5208,6168,5240.2,6168,5280L6168,5280z"/>
</g>
<path class="st1" d="M6312,5496L6312,5496c0-119.3,96.7-216,216-216h0c119.3,0,216,96.7,216,216v0C6744,5496,6312,5496,6312,5496z"
	/>
<path class="st0" d="M3712,5496L3712,5496c0-119.3,96.7-216,216-216h0c119.3,0,216,96.7,216,216v0C4144,5496,3712,5496,3712,5496z"
	/>
<g>
	<path class="st1" d="M7464,6320c119.3,0,216,96.7,216,216v0c0,119.3-96.7,216-216,216v0h432v-432H7464z"/>
	<path class="st3" d="M7464,6320C7464,6320,7464,6320,7464,6320L7464,6320c0,0,0,432,0,432h0L7464,6320L7464,6320z"/>
</g>
<rect x="2848" y="5232" class="st1" width="432" height="114"/>
<path class="st0" d="M472,5352L472,5352c-39.8,0-72-32.2-72-72l0,0c0-39.8,32.2-72,72-72h0c39.8,0,72,32.2,72,72l0,0
	C544,5319.8,511.8,5352,472,5352z"/>
<path class="st1" d="M7248,6608L7248,6608c-39.8,0-72-32.2-72-72l0,0c0-39.8,32.2-72,72-72l0,0c39.8,0,72,32.2,72,72l0,0
	C7320,6575.8,7287.8,6608,7248,6608z"/>
<rect x="432.5" y="3352" class="st1" width="432" height="432"/>
<rect x="864" y="2920" class="st2" width="432" height="432"/>
<rect x="1296" y="2920" class="st3" width="432" height="432"/>
<rect x="2160" y="2488" class="st1" width="432" height="432"/>
<rect x="864" y="2488" class="st0" width="432" height="432"/>
<rect x="432.5" y="2488" class="st1" width="432" height="432"/>
<polygon class="st3" points="1300,2920 868,2920 1084,2488 "/>
<path class="st2" d="M2160,2920L2160,2920c0-119.3,96.7-216,216-216h0c119.3,0,216,96.7,216,216v0C2592,2920,2160,2920,2160,2920z"
	/>
<path class="st1" d="M1296,2920L1296,2920c0,119.3-96.7,216-216,216h0c-119.3,0-216-96.7-216-216v0C864,2920,1296,2920,1296,2920z"
	/>
<path class="st2" d="M432,3352L432,3352c119.3,0,216,96.7,216,216v0c0,119.3-96.7,216-216,216h0C432,3784,432,3352,432,3352z"/>
<polygon class="st0" points="0,2920 0,2488 432,2488 "/>
<rect x="1296" y="2488" class="st1" width="432" height="432"/>
<rect x="1728" y="2920" class="st2" width="432" height="432"/>
<polygon class="st2" points="1296,2920 1296,2488 1728,2488 "/>
<rect x="1728" y="2488" class="st0" width="432" height="432"/>
<rect x="2160" y="2920" class="st1" width="432" height="432"/>
<rect x="432.5" y="2920" class="st0" width="432" height="432"/>
<rect x="864" y="3353" class="st0" width="432" height="432"/>
<rect x="1296" y="3352" class="st0" width="432" height="432"/>
<rect x="1728" y="3352" class="st2" width="432" height="432"/>
<rect x="2160" y="3352" class="st1" width="432" height="432"/>
<rect x="0" y="3352" transform="matrix(-1.836970e-16 1 -1 -1.836970e-16 3784 3352)" class="st2" width="432" height="432"/>
<path class="st3" d="M1944,2776L1944,2776c-39.8,0-72-32.2-72-72l0,0c0-39.8,32.2-72,72-72h0c39.8,0,72,32.2,72,72l0,0
	C2016,2743.8,1983.8,2776,1944,2776z"/>
<path class="st2" d="M648.5,2920L648.5,2920c-119.3,0-216-96.7-216-216v0c0-119.3,96.7-216,216-216h0c119.3,0,216,96.7,216,216v0
	C864.5,2823.3,767.8,2920,648.5,2920z"/>
<rect x="2160" y="3784" class="st0" width="432" height="432"/>
<rect x="864" y="3784" class="st1" width="432" height="432"/>
<rect y="3784" class="st0" width="432" height="432"/>
<rect x="432.5" y="3784" class="st0" width="432" height="432"/>
<path class="st2" d="M2160,4216L2160,4216c0-119.3,96.7-216,216-216h0c119.3,0,216,96.7,216,216l0,0C2592,4216,2160,4216,2160,4216z
	"/>
<polygon class="st1" points="0,4216 0,3784 432,3784 "/>
<rect x="1728" y="3784" class="st2" width="432" height="432"/>
<polygon class="st1" points="1728,4216 1728,3784 2160,3784 "/>
<rect x="1296" y="3784" class="st2" width="432" height="432"/>
<path class="st0" d="M1512,4072L1512,4072c-39.8,0-72-32.2-72-72l0,0c0-39.8,32.2-72,72-72h0c39.8,0,72,32.2,72,72l0,0
	C1584,4039.8,1551.8,4072,1512,4072z"/>
<path class="st2" d="M648.5,4216L648.5,4216c-119.3,0-216-96.7-216-216v0c0-119.3,96.7-216,216-216h0c119.3,0,216,96.7,216,216v0
	C864.5,4119.3,767.8,4216,648.5,4216z"/>
<path class="st3" d="M2377,3352L2377,3352c-119.3,0-216-96.7-216-216v0c0-119.3,96.7-216,216-216h0c119.3,0,216,96.7,216,216v0
	C2593,3255.3,2496.3,3352,2377,3352z"/>
<g>
	<path class="st1" d="M0,2920v432h432v-432H0z M288,3136c0,39.8-32.2,72-72,72h0c-39.8,0-72-32.2-72-72l0,0c0-39.8,32.2-72,72-72h0
		C255.8,3064,288,3096.2,288,3136L288,3136z"/>
</g>
<polygon class="st0" points="2160,3352 2592,3352 2376,3784 "/>
<polygon class="st0" points="2160,2920 2160,3352 1728,3352 "/>
<polygon class="st3" points="1728,3352 2160,3352 2160,3784 "/>
<polygon class="st3" points="432,3352 432,3784 0,3784 "/>
<path class="st3" d="M1080,3649L1080,3649c-39.8,0-72-32.2-72-72l0,0c0-39.8,32.2-72,72-72h0c39.8,0,72,32.2,72,72l0,0
	C1152,3616.8,1119.8,3649,1080,3649z"/>
<path class="st1" d="M1296,3784L1296,3784c0-119.3,96.7-216,216-216h0c119.3,0,216,96.7,216,216v0C1728,3784,1296,3784,1296,3784z"
	/>
<path class="st0" d="M1296,3352L1296,3352c0-119.3,96.7-216,216-216h0c119.3,0,216,96.7,216,216v0C1728,3352,1296,3352,1296,3352z"
	/>
<path class="st3" d="M865,3784L865,3784c119.3,0,216,96.7,216,216v0c0,119.3-96.7,216-216,216h0C865,4216,865,3784,865,3784z"/>
<rect x="432" y="3088" class="st1" width="432" height="114"/>
<path class="st0" d="M648,2776L648,2776c-39.8,0-72-32.2-72-72l0,0c0-39.8,32.2-72,72-72h0c39.8,0,72,32.2,72,72l0,0
	C720,2743.8,687.8,2776,648,2776z"/>
<path class="st1" d="M648,4072L648,4072c-39.8,0-72-32.2-72-72l0,0c0-39.8,32.2-72,72-72h0c39.8,0,72,32.2,72,72l0,0
	C720,4039.8,687.8,4072,648,4072z"/>
<g>
	<path class="st1" d="M432,600V432H0v432h432V714h432V600H432z M288,648c0,39.8-32.2,72-72,72h0c-39.8,0-72-32.2-72-72v0
		c0-39.8,32.2-72,72-72h0C255.8,576,288,608.2,288,648L288,648z"/>
</g>
</svg>
